<?xml version="1.0" encoding="UTF-8"?>
<svg xmlns="http://www.w3.org/2000/svg" xmlns:xlink="http://www.w3.org/1999/xlink" width="375pt" height="374.999991pt" viewBox="0 0 375 374.999991" version="1.2">
<defs>
<clipPath id="clip1">
  <path d="M 73.710938 78.6875 L 300.632812 78.6875 L 300.632812 129 L 73.710938 129 Z M 73.710938 78.6875 "/>
</clipPath>
<clipPath id="clip2">
  <path d="M 73.710938 128 L 300.632812 128 L 300.632812 296.070312 L 73.710938 296.070312 Z M 73.710938 128 "/>
</clipPath>
</defs>
<g id="surface1">
<g clip-path="url(#clip1)" clip-rule="nonzero">
<path style=" stroke:none;fill-rule:nonzero;fill:rgb(27.059937%,35.289001%,39.219666%);fill-opacity:1;" d="M 300.597656 103.390625 L 300.597656 128.09375 L 73.742188 128.09375 L 73.742188 103.390625 C 73.742188 102.582031 73.785156 101.773438 73.863281 100.96875 C 73.941406 100.164062 74.058594 99.363281 74.21875 98.570312 C 74.375 97.777344 74.570312 96.992188 74.804688 96.21875 C 75.039062 95.445312 75.3125 94.683594 75.621094 93.9375 C 75.929688 93.191406 76.273438 92.460938 76.65625 91.746094 C 77.035156 91.03125 77.449219 90.339844 77.898438 89.667969 C 78.347656 88.992188 78.828125 88.34375 79.339844 87.71875 C 79.851562 87.09375 80.394531 86.496094 80.964844 85.921875 C 81.535156 85.351562 82.132812 84.808594 82.757812 84.292969 C 83.382812 83.78125 84.03125 83.300781 84.703125 82.851562 C 85.375 82.402344 86.066406 81.984375 86.777344 81.605469 C 87.492188 81.222656 88.21875 80.878906 88.964844 80.566406 C 89.710938 80.257812 90.472656 79.984375 91.242188 79.75 C 92.015625 79.515625 92.800781 79.320312 93.589844 79.164062 C 94.382812 79.003906 95.179688 78.886719 95.984375 78.804688 C 96.789062 78.726562 97.59375 78.6875 98.402344 78.6875 L 275.9375 78.6875 C 276.746094 78.6875 277.550781 78.726562 278.355469 78.804688 C 279.160156 78.886719 279.957031 79.003906 280.75 79.164062 C 281.542969 79.320312 282.324219 79.515625 283.097656 79.75 C 283.871094 79.984375 284.628906 80.257812 285.375 80.566406 C 286.121094 80.878906 286.851562 81.222656 287.5625 81.605469 C 288.273438 81.984375 288.96875 82.402344 289.636719 82.851562 C 290.308594 83.300781 290.957031 83.78125 291.582031 84.292969 C 292.207031 84.808594 292.804688 85.351562 293.375 85.921875 C 293.945312 86.496094 294.488281 87.09375 295 87.71875 C 295.511719 88.34375 295.992188 88.992188 296.441406 89.667969 C 296.890625 90.339844 297.304688 91.03125 297.683594 91.746094 C 298.066406 92.460938 298.410156 93.191406 298.71875 93.9375 C 299.027344 94.683594 299.300781 95.445312 299.535156 96.21875 C 299.769531 96.992188 299.964844 97.777344 300.125 98.570312 C 300.28125 99.363281 300.398438 100.164062 300.476562 100.96875 C 300.558594 101.773438 300.597656 102.582031 300.597656 103.390625 Z M 300.597656 103.390625 "/>
</g>
<g clip-path="url(#clip2)" clip-rule="nonzero">
<path style=" stroke:none;fill-rule:nonzero;fill:rgb(81.17981%,84.709167%,86.268616%);fill-opacity:1;" d="M 300.597656 128.09375 L 300.597656 271.367188 C 300.597656 272.175781 300.558594 272.984375 300.476562 273.789062 C 300.398438 274.59375 300.28125 275.394531 300.125 276.1875 C 299.964844 276.980469 299.769531 277.765625 299.535156 278.539062 C 299.300781 279.3125 299.027344 280.074219 298.71875 280.820312 C 298.410156 281.570312 298.066406 282.300781 297.683594 283.011719 C 297.304688 283.726562 296.890625 284.417969 296.441406 285.09375 C 295.992188 285.765625 295.511719 286.414062 295 287.039062 C 294.488281 287.664062 293.945312 288.261719 293.375 288.835938 C 292.804688 289.40625 292.207031 289.949219 291.582031 290.464844 C 290.957031 290.976562 290.308594 291.457031 289.636719 291.90625 C 288.96875 292.355469 288.273438 292.773438 287.5625 293.152344 C 286.851562 293.535156 286.121094 293.878906 285.375 294.191406 C 284.628906 294.5 283.871094 294.773438 283.097656 295.007812 C 282.324219 295.242188 281.542969 295.4375 280.75 295.597656 C 279.957031 295.753906 279.160156 295.871094 278.355469 295.953125 C 277.550781 296.03125 276.746094 296.070312 275.9375 296.070312 L 98.402344 296.070312 C 97.59375 296.070312 96.789062 296.03125 95.984375 295.953125 C 95.179688 295.871094 94.382812 295.753906 93.589844 295.597656 C 92.800781 295.4375 92.015625 295.242188 91.242188 295.007812 C 90.472656 294.773438 89.710938 294.5 88.964844 294.191406 C 88.21875 293.878906 87.492188 293.535156 86.777344 293.152344 C 86.066406 292.773438 85.375 292.355469 84.703125 291.90625 C 84.03125 291.457031 83.382812 290.976562 82.757812 290.464844 C 82.132812 289.949219 81.535156 289.40625 80.964844 288.835938 C 80.394531 288.261719 79.851562 287.664062 79.339844 287.039062 C 78.828125 286.414062 78.347656 285.765625 77.898438 285.09375 C 77.449219 284.417969 77.035156 283.726562 76.65625 283.011719 C 76.273438 282.300781 75.929688 281.570312 75.621094 280.820312 C 75.3125 280.074219 75.039062 279.3125 74.804688 278.539062 C 74.570312 277.765625 74.375 276.980469 74.21875 276.1875 C 74.058594 275.394531 73.941406 274.59375 73.863281 273.789062 C 73.785156 272.984375 73.742188 272.175781 73.742188 271.367188 L 73.742188 128.09375 Z M 300.597656 128.09375 "/>
</g>
<path style=" stroke:none;fill-rule:nonzero;fill:rgb(95.689392%,26.269531%,21.179199%);fill-opacity:1;" d="M 103.332031 103.390625 C 103.332031 103.714844 103.300781 104.035156 103.238281 104.355469 C 103.175781 104.671875 103.082031 104.980469 102.957031 105.28125 C 102.835938 105.582031 102.683594 105.867188 102.503906 106.136719 C 102.324219 106.40625 102.117188 106.65625 101.890625 106.882812 C 101.660156 107.113281 101.410156 107.316406 101.140625 107.5 C 100.871094 107.679688 100.589844 107.832031 100.289062 107.953125 C 99.988281 108.078125 99.679688 108.171875 99.363281 108.234375 C 99.046875 108.300781 98.726562 108.332031 98.402344 108.332031 C 98.078125 108.332031 97.757812 108.300781 97.441406 108.234375 C 97.121094 108.171875 96.8125 108.078125 96.515625 107.953125 C 96.214844 107.832031 95.929688 107.679688 95.660156 107.5 C 95.394531 107.316406 95.144531 107.113281 94.914062 106.882812 C 94.6875 106.65625 94.480469 106.40625 94.300781 106.136719 C 94.121094 105.867188 93.96875 105.582031 93.84375 105.28125 C 93.722656 104.980469 93.628906 104.671875 93.566406 104.355469 C 93.5 104.035156 93.46875 103.714844 93.46875 103.390625 C 93.46875 103.066406 93.5 102.746094 93.566406 102.425781 C 93.628906 102.109375 93.722656 101.800781 93.84375 101.5 C 93.96875 101.199219 94.121094 100.914062 94.300781 100.644531 C 94.480469 100.375 94.6875 100.125 94.914062 99.898438 C 95.144531 99.667969 95.394531 99.460938 95.660156 99.28125 C 95.929688 99.101562 96.214844 98.949219 96.515625 98.824219 C 96.8125 98.703125 97.121094 98.609375 97.441406 98.542969 C 97.757812 98.480469 98.078125 98.449219 98.402344 98.449219 C 98.726562 98.449219 99.046875 98.480469 99.363281 98.542969 C 99.679688 98.609375 99.988281 98.703125 100.289062 98.824219 C 100.589844 98.949219 100.871094 99.101562 101.140625 99.28125 C 101.410156 99.460938 101.660156 99.667969 101.890625 99.898438 C 102.117188 100.125 102.324219 100.375 102.503906 100.644531 C 102.683594 100.914062 102.835938 101.199219 102.957031 101.5 C 103.082031 101.800781 103.175781 102.109375 103.238281 102.425781 C 103.300781 102.746094 103.332031 103.066406 103.332031 103.390625 Z M 103.332031 103.390625 "/>
<path style=" stroke:none;fill-rule:nonzero;fill:rgb(100%,75.689697%,2.749634%);fill-opacity:1;" d="M 123.058594 103.390625 C 123.058594 103.714844 123.027344 104.035156 122.964844 104.355469 C 122.902344 104.671875 122.808594 104.980469 122.683594 105.28125 C 122.558594 105.582031 122.410156 105.867188 122.230469 106.136719 C 122.046875 106.40625 121.84375 106.65625 121.617188 106.882812 C 121.386719 107.113281 121.136719 107.316406 120.867188 107.5 C 120.597656 107.679688 120.316406 107.832031 120.015625 107.953125 C 119.714844 108.078125 119.40625 108.171875 119.089844 108.234375 C 118.773438 108.300781 118.453125 108.332031 118.128906 108.332031 C 117.804688 108.332031 117.484375 108.300781 117.167969 108.234375 C 116.847656 108.171875 116.539062 108.078125 116.242188 107.953125 C 115.941406 107.832031 115.65625 107.679688 115.386719 107.5 C 115.117188 107.316406 114.871094 107.113281 114.640625 106.882812 C 114.410156 106.65625 114.207031 106.40625 114.027344 106.136719 C 113.847656 105.867188 113.695312 105.582031 113.570312 105.28125 C 113.449219 104.980469 113.355469 104.671875 113.292969 104.355469 C 113.226562 104.035156 113.195312 103.714844 113.195312 103.390625 C 113.195312 103.066406 113.226562 102.746094 113.292969 102.425781 C 113.355469 102.109375 113.449219 101.800781 113.570312 101.5 C 113.695312 101.199219 113.847656 100.914062 114.027344 100.644531 C 114.207031 100.375 114.410156 100.125 114.640625 99.898438 C 114.871094 99.667969 115.117188 99.460938 115.386719 99.28125 C 115.65625 99.101562 115.941406 98.949219 116.242188 98.824219 C 116.539062 98.703125 116.847656 98.609375 117.167969 98.542969 C 117.484375 98.480469 117.804688 98.449219 118.128906 98.449219 C 118.453125 98.449219 118.773438 98.480469 119.089844 98.542969 C 119.40625 98.609375 119.714844 98.703125 120.015625 98.824219 C 120.316406 98.949219 120.597656 99.101562 120.867188 99.28125 C 121.136719 99.460938 121.386719 99.667969 121.617188 99.898438 C 121.84375 100.125 122.046875 100.375 122.230469 100.644531 C 122.410156 100.914062 122.558594 101.199219 122.683594 101.5 C 122.808594 101.800781 122.902344 102.109375 122.964844 102.425781 C 123.027344 102.746094 123.058594 103.066406 123.058594 103.390625 Z M 123.058594 103.390625 "/>
<path style=" stroke:none;fill-rule:nonzero;fill:rgb(29.798889%,68.629456%,31.369019%);fill-opacity:1;" d="M 142.785156 103.390625 C 142.785156 103.714844 142.753906 104.035156 142.691406 104.355469 C 142.628906 104.671875 142.535156 104.980469 142.410156 105.28125 C 142.285156 105.582031 142.136719 105.867188 141.953125 106.136719 C 141.773438 106.40625 141.570312 106.65625 141.339844 106.882812 C 141.113281 107.113281 140.863281 107.316406 140.59375 107.5 C 140.324219 107.679688 140.039062 107.832031 139.742188 107.953125 C 139.441406 108.078125 139.132812 108.171875 138.816406 108.234375 C 138.5 108.300781 138.179688 108.332031 137.855469 108.332031 C 137.53125 108.332031 137.210938 108.300781 136.890625 108.234375 C 136.574219 108.171875 136.265625 108.078125 135.96875 107.953125 C 135.667969 107.832031 135.382812 107.679688 135.113281 107.5 C 134.84375 107.316406 134.597656 107.113281 134.367188 106.882812 C 134.136719 106.65625 133.933594 106.40625 133.753906 106.136719 C 133.574219 105.867188 133.421875 105.582031 133.296875 105.28125 C 133.175781 104.980469 133.082031 104.671875 133.019531 104.355469 C 132.953125 104.035156 132.921875 103.714844 132.921875 103.390625 C 132.921875 103.066406 132.953125 102.746094 133.019531 102.425781 C 133.082031 102.109375 133.175781 101.800781 133.296875 101.5 C 133.421875 101.199219 133.574219 100.914062 133.753906 100.644531 C 133.933594 100.375 134.136719 100.125 134.367188 99.898438 C 134.597656 99.667969 134.84375 99.460938 135.113281 99.28125 C 135.382812 99.101562 135.667969 98.949219 135.96875 98.824219 C 136.265625 98.703125 136.574219 98.609375 136.890625 98.542969 C 137.210938 98.480469 137.53125 98.449219 137.855469 98.449219 C 138.179688 98.449219 138.5 98.480469 138.816406 98.542969 C 139.132812 98.609375 139.441406 98.703125 139.742188 98.824219 C 140.039062 98.949219 140.324219 99.101562 140.59375 99.28125 C 140.863281 99.460938 141.113281 99.667969 141.339844 99.898438 C 141.570312 100.125 141.773438 100.375 141.953125 100.644531 C 142.136719 100.914062 142.285156 101.199219 142.410156 101.5 C 142.535156 101.800781 142.628906 102.109375 142.691406 102.425781 C 142.753906 102.746094 142.785156 103.066406 142.785156 103.390625 Z M 142.785156 103.390625 "/>
<path style=" stroke:none;fill-rule:nonzero;fill:rgb(37.649536%,49.01886%,54.508972%);fill-opacity:1;" d="M 206.898438 157.734375 L 167.445312 157.734375 C 126.019531 157.734375 113.195312 204.820312 113.195312 221.960938 C 113.195312 244.90625 119.835938 256.546875 132.921875 256.546875 C 153.378906 256.546875 163.449219 237.316406 166.300781 230.699219 C 169.636719 229.441406 173.054688 228.496094 176.5625 227.859375 C 180.066406 227.21875 183.601562 226.902344 187.164062 226.902344 C 190.730469 226.902344 194.261719 227.21875 197.769531 227.859375 C 201.273438 228.496094 204.695312 229.441406 208.03125 230.699219 C 210.890625 237.308594 220.953125 256.546875 241.40625 256.546875 C 254.496094 256.546875 261.132812 244.90625 261.132812 221.960938 C 261.144531 204.820312 248.320312 157.734375 206.898438 157.734375 Z M 206.898438 157.734375 "/>
<path style=" stroke:none;fill-rule:nonzero;fill:rgb(98.039246%,98.039246%,98.039246%);fill-opacity:1;" d="M 211.828125 192.320312 C 211.828125 192.644531 211.796875 192.964844 211.734375 193.285156 C 211.671875 193.601562 211.578125 193.910156 211.453125 194.210938 C 211.328125 194.511719 211.175781 194.792969 210.996094 195.0625 C 210.816406 195.335938 210.613281 195.582031 210.382812 195.8125 C 210.15625 196.042969 209.90625 196.246094 209.636719 196.425781 C 209.367188 196.609375 209.082031 196.761719 208.785156 196.882812 C 208.484375 197.007812 208.175781 197.101562 207.859375 197.164062 C 207.542969 197.226562 207.21875 197.261719 206.898438 197.261719 C 206.574219 197.261719 206.253906 197.226562 205.933594 197.164062 C 205.617188 197.101562 205.308594 197.007812 205.007812 196.882812 C 204.710938 196.761719 204.425781 196.609375 204.15625 196.425781 C 203.886719 196.246094 203.636719 196.042969 203.410156 195.8125 C 203.179688 195.582031 202.976562 195.335938 202.796875 195.0625 C 202.617188 194.792969 202.464844 194.511719 202.339844 194.210938 C 202.214844 193.910156 202.125 193.601562 202.058594 193.285156 C 201.996094 192.964844 201.964844 192.644531 201.964844 192.320312 C 201.964844 191.996094 201.996094 191.675781 202.058594 191.355469 C 202.125 191.039062 202.214844 190.730469 202.339844 190.429688 C 202.464844 190.128906 202.617188 189.84375 202.796875 189.574219 C 202.976562 189.304688 203.179688 189.054688 203.410156 188.824219 C 203.636719 188.597656 203.886719 188.390625 204.15625 188.210938 C 204.425781 188.03125 204.710938 187.878906 205.007812 187.753906 C 205.308594 187.632812 205.617188 187.539062 205.933594 187.472656 C 206.253906 187.410156 206.574219 187.378906 206.898438 187.378906 C 207.21875 187.378906 207.542969 187.410156 207.859375 187.472656 C 208.175781 187.539062 208.484375 187.632812 208.785156 187.753906 C 209.082031 187.878906 209.367188 188.03125 209.636719 188.210938 C 209.90625 188.390625 210.15625 188.597656 210.382812 188.824219 C 210.613281 189.054688 210.816406 189.304688 210.996094 189.574219 C 211.175781 189.84375 211.328125 190.128906 211.453125 190.429688 C 211.578125 190.730469 211.671875 191.039062 211.734375 191.355469 C 211.796875 191.675781 211.828125 191.996094 211.828125 192.320312 Z M 211.828125 192.320312 "/>
<path style=" stroke:none;fill-rule:nonzero;fill:rgb(98.039246%,98.039246%,98.039246%);fill-opacity:1;" d="M 221.691406 202.199219 C 221.691406 202.523438 221.660156 202.847656 221.597656 203.164062 C 221.535156 203.484375 221.441406 203.792969 221.316406 204.089844 C 221.191406 204.390625 221.039062 204.675781 220.859375 204.945312 C 220.679688 205.214844 220.476562 205.464844 220.246094 205.695312 C 220.019531 205.921875 219.769531 206.128906 219.5 206.308594 C 219.230469 206.488281 218.945312 206.640625 218.648438 206.765625 C 218.347656 206.890625 218.039062 206.984375 217.722656 207.046875 C 217.40625 207.109375 217.082031 207.140625 216.761719 207.140625 C 216.4375 207.140625 216.117188 207.109375 215.796875 207.046875 C 215.480469 206.984375 215.171875 206.890625 214.871094 206.765625 C 214.574219 206.640625 214.289062 206.488281 214.019531 206.308594 C 213.75 206.128906 213.5 205.921875 213.273438 205.695312 C 213.042969 205.464844 212.839844 205.214844 212.660156 204.945312 C 212.480469 204.675781 212.328125 204.390625 212.203125 204.089844 C 212.078125 203.792969 211.988281 203.484375 211.921875 203.164062 C 211.859375 202.847656 211.828125 202.523438 211.828125 202.199219 C 211.828125 201.875 211.859375 201.554688 211.921875 201.238281 C 211.988281 200.917969 212.078125 200.609375 212.203125 200.308594 C 212.328125 200.011719 212.480469 199.726562 212.660156 199.457031 C 212.839844 199.1875 213.042969 198.9375 213.273438 198.707031 C 213.5 198.476562 213.75 198.273438 214.019531 198.09375 C 214.289062 197.914062 214.574219 197.761719 214.871094 197.636719 C 215.171875 197.511719 215.480469 197.417969 215.796875 197.355469 C 216.117188 197.292969 216.4375 197.261719 216.761719 197.261719 C 217.082031 197.261719 217.40625 197.292969 217.722656 197.355469 C 218.039062 197.417969 218.347656 197.511719 218.648438 197.636719 C 218.945312 197.761719 219.230469 197.914062 219.5 198.09375 C 219.769531 198.273438 220.019531 198.476562 220.246094 198.707031 C 220.476562 198.9375 220.679688 199.1875 220.859375 199.457031 C 221.039062 199.726562 221.191406 200.011719 221.316406 200.308594 C 221.441406 200.609375 221.535156 200.917969 221.597656 201.238281 C 221.660156 201.554688 221.691406 201.875 221.691406 202.199219 Z M 221.691406 202.199219 "/>
<path style=" stroke:none;fill-rule:nonzero;fill:rgb(98.039246%,98.039246%,98.039246%);fill-opacity:1;" d="M 221.691406 182.4375 C 221.691406 182.761719 221.660156 183.085938 221.597656 183.402344 C 221.535156 183.71875 221.441406 184.03125 221.316406 184.328125 C 221.191406 184.628906 221.039062 184.914062 220.859375 185.183594 C 220.679688 185.453125 220.476562 185.703125 220.246094 185.933594 C 220.019531 186.160156 219.769531 186.367188 219.5 186.546875 C 219.230469 186.726562 218.945312 186.878906 218.648438 187.003906 C 218.347656 187.128906 218.039062 187.222656 217.722656 187.285156 C 217.40625 187.347656 217.082031 187.378906 216.761719 187.378906 C 216.4375 187.378906 216.117188 187.347656 215.796875 187.285156 C 215.480469 187.222656 215.171875 187.128906 214.871094 187.003906 C 214.574219 186.878906 214.289062 186.726562 214.019531 186.546875 C 213.75 186.367188 213.5 186.160156 213.273438 185.933594 C 213.042969 185.703125 212.839844 185.453125 212.660156 185.183594 C 212.480469 184.914062 212.328125 184.628906 212.203125 184.328125 C 212.078125 184.03125 211.988281 183.71875 211.921875 183.402344 C 211.859375 183.085938 211.828125 182.761719 211.828125 182.4375 C 211.828125 182.113281 211.859375 181.792969 211.921875 181.476562 C 211.988281 181.15625 212.078125 180.847656 212.203125 180.546875 C 212.328125 180.25 212.480469 179.964844 212.660156 179.695312 C 212.839844 179.425781 213.042969 179.175781 213.273438 178.945312 C 213.5 178.714844 213.75 178.511719 214.019531 178.332031 C 214.289062 178.152344 214.574219 178 214.871094 177.875 C 215.171875 177.75 215.480469 177.65625 215.796875 177.59375 C 216.117188 177.53125 216.4375 177.496094 216.761719 177.496094 C 217.082031 177.496094 217.40625 177.53125 217.722656 177.59375 C 218.039062 177.65625 218.347656 177.75 218.648438 177.875 C 218.945312 178 219.230469 178.152344 219.5 178.332031 C 219.769531 178.511719 220.019531 178.714844 220.246094 178.945312 C 220.476562 179.175781 220.679688 179.425781 220.859375 179.695312 C 221.039062 179.964844 221.191406 180.25 221.316406 180.546875 C 221.441406 180.847656 221.535156 181.15625 221.597656 181.476562 C 221.660156 181.792969 221.691406 182.113281 221.691406 182.4375 Z M 221.691406 182.4375 "/>
<path style=" stroke:none;fill-rule:nonzero;fill:rgb(98.039246%,98.039246%,98.039246%);fill-opacity:1;" d="M 231.554688 192.320312 C 231.554688 192.644531 231.523438 192.964844 231.460938 193.285156 C 231.398438 193.601562 231.304688 193.910156 231.179688 194.210938 C 231.054688 194.511719 230.902344 194.792969 230.722656 195.0625 C 230.542969 195.335938 230.339844 195.582031 230.109375 195.8125 C 229.882812 196.042969 229.632812 196.246094 229.363281 196.425781 C 229.09375 196.609375 228.808594 196.761719 228.511719 196.882812 C 228.210938 197.007812 227.902344 197.101562 227.585938 197.164062 C 227.269531 197.226562 226.945312 197.261719 226.625 197.261719 C 226.300781 197.261719 225.980469 197.226562 225.660156 197.164062 C 225.34375 197.101562 225.035156 197.007812 224.734375 196.882812 C 224.4375 196.761719 224.152344 196.609375 223.882812 196.425781 C 223.613281 196.246094 223.363281 196.042969 223.136719 195.8125 C 222.90625 195.582031 222.703125 195.335938 222.523438 195.0625 C 222.34375 194.792969 222.191406 194.511719 222.066406 194.210938 C 221.941406 193.910156 221.847656 193.601562 221.785156 193.285156 C 221.722656 192.964844 221.691406 192.644531 221.691406 192.320312 C 221.691406 191.996094 221.722656 191.675781 221.785156 191.355469 C 221.847656 191.039062 221.941406 190.730469 222.066406 190.429688 C 222.191406 190.128906 222.34375 189.84375 222.523438 189.574219 C 222.703125 189.304688 222.90625 189.054688 223.136719 188.824219 C 223.363281 188.597656 223.613281 188.390625 223.882812 188.210938 C 224.152344 188.03125 224.4375 187.878906 224.734375 187.753906 C 225.035156 187.632812 225.34375 187.539062 225.660156 187.472656 C 225.980469 187.410156 226.300781 187.378906 226.625 187.378906 C 226.945312 187.378906 227.269531 187.410156 227.585938 187.472656 C 227.902344 187.539062 228.210938 187.632812 228.511719 187.753906 C 228.808594 187.878906 229.09375 188.03125 229.363281 188.210938 C 229.632812 188.390625 229.882812 188.597656 230.109375 188.824219 C 230.339844 189.054688 230.542969 189.304688 230.722656 189.574219 C 230.902344 189.84375 231.054688 190.128906 231.179688 190.429688 C 231.304688 190.730469 231.398438 191.039062 231.460938 191.355469 C 231.523438 191.675781 231.554688 191.996094 231.554688 192.320312 Z M 231.554688 192.320312 "/>
<path style=" stroke:none;fill-rule:nonzero;fill:rgb(98.039246%,98.039246%,98.039246%);fill-opacity:1;" d="M 167.445312 187.378906 L 162.511719 187.378906 L 162.511719 182.4375 C 162.511719 182.113281 162.480469 181.792969 162.417969 181.476562 C 162.355469 181.15625 162.261719 180.847656 162.136719 180.546875 C 162.011719 180.25 161.859375 179.964844 161.679688 179.695312 C 161.5 179.425781 161.296875 179.175781 161.066406 178.945312 C 160.839844 178.714844 160.589844 178.511719 160.320312 178.332031 C 160.050781 178.152344 159.765625 178 159.46875 177.875 C 159.167969 177.75 158.859375 177.65625 158.542969 177.59375 C 158.226562 177.53125 157.90625 177.496094 157.582031 177.496094 C 157.257812 177.496094 156.9375 177.53125 156.617188 177.59375 C 156.300781 177.65625 155.992188 177.75 155.695312 177.875 C 155.394531 178 155.109375 178.152344 154.839844 178.332031 C 154.570312 178.511719 154.324219 178.714844 154.09375 178.945312 C 153.863281 179.175781 153.660156 179.425781 153.480469 179.695312 C 153.300781 179.964844 153.148438 180.25 153.023438 180.546875 C 152.902344 180.847656 152.808594 181.15625 152.742188 181.476562 C 152.679688 181.792969 152.648438 182.113281 152.648438 182.4375 L 152.648438 187.378906 L 147.71875 187.378906 C 147.394531 187.378906 147.074219 187.410156 146.753906 187.472656 C 146.4375 187.539062 146.128906 187.632812 145.832031 187.753906 C 145.53125 187.878906 145.246094 188.03125 144.976562 188.210938 C 144.707031 188.390625 144.460938 188.597656 144.230469 188.824219 C 144 189.054688 143.796875 189.304688 143.617188 189.574219 C 143.4375 189.84375 143.285156 190.128906 143.160156 190.429688 C 143.039062 190.730469 142.945312 191.039062 142.882812 191.355469 C 142.816406 191.675781 142.785156 191.996094 142.785156 192.320312 C 142.785156 192.644531 142.816406 192.964844 142.882812 193.285156 C 142.945312 193.601562 143.039062 193.910156 143.160156 194.210938 C 143.285156 194.511719 143.4375 194.792969 143.617188 195.0625 C 143.796875 195.335938 144 195.582031 144.230469 195.8125 C 144.460938 196.042969 144.707031 196.246094 144.976562 196.425781 C 145.246094 196.609375 145.53125 196.761719 145.832031 196.882812 C 146.128906 197.007812 146.4375 197.101562 146.753906 197.164062 C 147.074219 197.226562 147.394531 197.261719 147.71875 197.261719 L 152.648438 197.261719 L 152.648438 202.199219 C 152.648438 202.523438 152.679688 202.847656 152.742188 203.164062 C 152.808594 203.484375 152.902344 203.792969 153.023438 204.089844 C 153.148438 204.390625 153.300781 204.675781 153.480469 204.945312 C 153.660156 205.214844 153.863281 205.464844 154.09375 205.695312 C 154.324219 205.921875 154.570312 206.128906 154.839844 206.308594 C 155.109375 206.488281 155.394531 206.640625 155.695312 206.765625 C 155.992188 206.890625 156.300781 206.984375 156.617188 207.046875 C 156.9375 207.109375 157.257812 207.140625 157.582031 207.140625 C 157.90625 207.140625 158.226562 207.109375 158.542969 207.046875 C 158.859375 206.984375 159.167969 206.890625 159.46875 206.765625 C 159.765625 206.640625 160.050781 206.488281 160.320312 206.308594 C 160.589844 206.128906 160.839844 205.921875 161.066406 205.695312 C 161.296875 205.464844 161.5 205.214844 161.679688 204.945312 C 161.859375 204.675781 162.011719 204.390625 162.136719 204.089844 C 162.261719 203.792969 162.355469 203.484375 162.417969 203.164062 C 162.480469 202.847656 162.511719 202.523438 162.511719 202.199219 L 162.511719 197.261719 L 167.445312 197.261719 C 167.769531 197.261719 168.089844 197.226562 168.40625 197.164062 C 168.722656 197.101562 169.03125 197.007812 169.332031 196.882812 C 169.628906 196.761719 169.914062 196.609375 170.183594 196.425781 C 170.453125 196.246094 170.703125 196.042969 170.929688 195.8125 C 171.160156 195.582031 171.363281 195.335938 171.542969 195.0625 C 171.722656 194.792969 171.875 194.511719 172 194.210938 C 172.125 193.910156 172.21875 193.601562 172.28125 193.285156 C 172.34375 192.964844 172.375 192.644531 172.375 192.320312 C 172.375 191.996094 172.34375 191.675781 172.28125 191.355469 C 172.21875 191.039062 172.125 190.730469 172 190.429688 C 171.875 190.128906 171.722656 189.84375 171.542969 189.574219 C 171.363281 189.304688 171.160156 189.054688 170.929688 188.824219 C 170.703125 188.597656 170.453125 188.390625 170.183594 188.210938 C 169.914062 188.03125 169.628906 187.878906 169.332031 187.753906 C 169.03125 187.632812 168.722656 187.539062 168.40625 187.472656 C 168.089844 187.410156 167.769531 187.378906 167.445312 187.378906 Z M 167.445312 187.378906 "/>
</g>
</svg>
