<?xml version="1.0" encoding="UTF-8"?>
<svg xmlns="http://www.w3.org/2000/svg" xmlns:xlink="http://www.w3.org/1999/xlink" width="375pt" height="374.999991pt" viewBox="0 0 375 374.999991" version="1.2">
<defs>
<clipPath id="clip1">
  <path d="M 107.875 54.789062 L 266.628906 54.789062 L 266.628906 320.289062 L 107.875 320.289062 Z M 107.875 54.789062 "/>
</clipPath>
</defs>
<g id="surface1">
<path style=" stroke:none;fill-rule:nonzero;fill:rgb(27.839661%,50.979614%,59.609985%);fill-opacity:1;" d="M 262.21875 94.628906 L 262.21875 280.53125 L 257.808594 284.957031 L 116.691406 284.957031 L 112.28125 280.53125 L 112.28125 94.628906 L 116.691406 90.203125 L 257.808594 90.203125 L 262.21875 94.628906 "/>
<path style=" stroke:none;fill-rule:nonzero;fill:rgb(69.40918%,72.549438%,76.858521%);fill-opacity:1;" d="M 262.21875 72.496094 L 262.21875 94.628906 L 112.28125 94.628906 L 112.28125 72.496094 C 112.28125 65.148438 118.191406 59.21875 125.511719 59.21875 L 248.988281 59.21875 C 256.308594 59.21875 262.21875 65.148438 262.21875 72.496094 "/>
<path style=" stroke:none;fill-rule:nonzero;fill:rgb(69.40918%,72.549438%,76.858521%);fill-opacity:1;" d="M 112.28125 280.53125 L 262.21875 280.53125 L 262.21875 302.660156 C 262.21875 310.011719 256.308594 315.941406 248.988281 315.941406 L 125.511719 315.941406 C 118.191406 315.941406 112.28125 310.011719 112.28125 302.660156 L 112.28125 280.53125 "/>
<path style=" stroke:none;fill-rule:nonzero;fill:rgb(81.959534%,84.309387%,86.268616%);fill-opacity:1;" d="M 238.03125 216.816406 C 239.101562 216.382812 239.859375 215.398438 239.980469 214.257812 C 240.097656 212.753906 240.167969 211.230469 240.167969 209.710938 C 240.167969 208.1875 240.097656 206.667969 239.980469 205.164062 C 239.859375 204.023438 239.101562 203.035156 238.03125 202.605469 L 229.503906 199.179688 C 228.4375 194.894531 226.75 190.863281 224.542969 187.183594 L 228.160156 178.691406 C 228.609375 177.636719 228.472656 176.394531 227.730469 175.511719 C 226.765625 174.351562 225.734375 173.230469 224.664062 172.15625 C 223.597656 171.085938 222.476562 170.046875 221.324219 169.078125 C 220.445312 168.335938 219.203125 168.199219 218.152344 168.648438 L 209.695312 172.277344 C 206.027344 170.066406 202.011719 168.371094 197.742188 167.296875 L 194.328125 158.738281 C 193.898438 157.667969 192.917969 156.90625 191.78125 156.785156 C 190.28125 156.664062 188.765625 156.597656 187.25 156.597656 C 185.734375 156.597656 184.21875 156.664062 182.71875 156.785156 C 181.582031 156.90625 180.601562 157.667969 180.171875 158.738281 L 176.757812 167.296875 C 172.488281 168.371094 168.472656 170.066406 164.804688 172.277344 L 156.347656 168.648438 C 155.296875 168.199219 154.054688 168.335938 153.175781 169.078125 C 152.023438 170.046875 150.902344 171.085938 149.835938 172.15625 C 148.765625 173.230469 147.734375 174.351562 146.769531 175.511719 C 146.027344 176.394531 145.890625 177.636719 146.339844 178.691406 L 149.957031 187.183594 C 147.75 190.863281 146.0625 194.894531 144.996094 199.179688 L 136.46875 202.605469 C 135.398438 203.035156 134.640625 204.023438 134.523438 205.164062 C 134.402344 206.667969 134.332031 208.1875 134.332031 209.710938 C 134.332031 211.230469 134.402344 212.753906 134.523438 214.257812 C 134.640625 215.398438 135.398438 216.382812 136.46875 216.816406 L 144.996094 220.242188 C 146.0625 224.527344 147.75 228.558594 149.957031 232.238281 L 146.339844 240.730469 C 145.890625 241.785156 146.027344 243.027344 146.769531 243.910156 C 147.734375 245.070312 148.765625 246.191406 149.835938 247.265625 C 150.902344 248.335938 152.023438 249.375 153.175781 250.34375 C 154.054688 251.085938 155.296875 251.222656 156.347656 250.773438 L 164.804688 247.144531 C 168.472656 249.355469 172.488281 251.050781 176.757812 252.121094 L 180.171875 260.679688 C 180.601562 261.753906 181.582031 262.515625 182.71875 262.636719 C 184.21875 262.757812 185.734375 262.824219 187.25 262.824219 C 188.765625 262.824219 190.28125 262.757812 191.78125 262.636719 C 192.917969 262.515625 193.898438 261.753906 194.328125 260.679688 L 197.742188 252.121094 C 202.011719 251.050781 206.027344 249.355469 209.695312 247.144531 L 218.152344 250.773438 C 219.203125 251.222656 220.445312 251.085938 221.324219 250.34375 C 222.476562 249.375 223.597656 248.335938 224.664062 247.265625 C 225.734375 246.191406 226.765625 245.070312 227.730469 243.910156 C 228.472656 243.027344 228.609375 241.785156 228.160156 240.730469 L 224.542969 232.238281 C 226.75 228.558594 228.4375 224.527344 229.503906 220.242188 L 238.03125 216.816406 "/>
<path style=" stroke:none;fill-rule:nonzero;fill:rgb(77.249146%,79.219055%,82.348633%);fill-opacity:1;" d="M 213.710938 209.710938 C 213.710938 224.371094 201.859375 236.269531 187.25 236.269531 C 172.644531 236.269531 160.792969 224.371094 160.792969 209.710938 C 160.792969 195.046875 172.644531 183.152344 187.25 183.152344 C 201.859375 183.152344 213.710938 195.046875 213.710938 209.710938 "/>
<path style=" stroke:none;fill-rule:nonzero;fill:rgb(16.859436%,17.248535%,17.649841%);fill-opacity:1;" d="M 138.863281 206.425781 L 146.632812 203.296875 C 147.957031 202.761719 148.941406 201.636719 149.285156 200.253906 C 150.214844 196.464844 151.714844 192.835938 153.746094 189.464844 C 154.46875 188.253906 154.574219 186.75 154.019531 185.433594 L 150.714844 177.691406 C 151.421875 176.859375 152.179688 176.0625 152.953125 175.285156 C 153.730469 174.507812 154.519531 173.746094 155.347656 173.039062 L 163.066406 176.359375 C 164.375 176.910156 165.871094 176.808594 167.078125 176.082031 C 170.4375 174.042969 174.054688 172.539062 177.828125 171.601562 C 179.207031 171.257812 180.324219 170.273438 180.859375 168.941406 L 183.976562 161.144531 C 186.148438 160.96875 188.351562 160.96875 190.523438 161.144531 L 193.640625 168.941406 C 194.175781 170.273438 195.292969 171.257812 196.671875 171.601562 C 200.445312 172.539062 204.0625 174.042969 207.421875 176.082031 C 208.628906 176.808594 210.125 176.910156 211.433594 176.359375 L 219.152344 173.039062 C 219.980469 173.746094 220.773438 174.507812 221.546875 175.285156 C 222.320312 176.0625 223.0625 176.859375 223.785156 177.691406 L 220.480469 185.433594 C 219.929688 186.75 220.03125 188.253906 220.753906 189.464844 C 222.789062 192.835938 224.285156 196.464844 225.214844 200.253906 C 225.5625 201.636719 226.542969 202.761719 227.867188 203.296875 L 235.636719 206.425781 C 235.722656 207.515625 235.757812 208.621094 235.757812 209.710938 C 235.757812 210.800781 235.722656 211.90625 235.636719 212.996094 L 227.867188 216.125 C 226.542969 216.660156 225.5625 217.785156 225.214844 219.167969 C 224.285156 222.953125 222.789062 226.585938 220.753906 229.957031 C 220.03125 231.167969 219.929688 232.671875 220.480469 233.984375 L 223.785156 241.730469 C 223.082031 242.5625 222.320312 243.355469 221.546875 244.136719 C 220.773438 244.914062 219.980469 245.675781 219.152344 246.382812 L 211.433594 243.0625 C 210.125 242.492188 208.628906 242.613281 207.421875 243.339844 C 204.0625 245.378906 200.445312 246.882812 196.671875 247.816406 C 195.292969 248.164062 194.175781 249.148438 193.640625 250.480469 L 190.523438 258.277344 C 188.351562 258.449219 186.148438 258.449219 183.976562 258.277344 L 180.859375 250.480469 C 180.324219 249.148438 179.207031 248.164062 177.828125 247.816406 C 174.054688 246.882812 170.4375 245.378906 167.078125 243.339844 C 165.871094 242.613281 164.375 242.492188 163.066406 243.0625 L 155.347656 246.382812 C 154.519531 245.675781 153.730469 244.914062 152.953125 244.136719 C 152.179688 243.355469 151.421875 242.5625 150.714844 241.730469 L 154.019531 233.984375 C 154.574219 232.671875 154.46875 231.167969 153.746094 229.957031 C 151.714844 226.585938 150.214844 222.953125 149.285156 219.167969 C 148.941406 217.785156 147.957031 216.660156 146.632812 216.125 L 138.863281 212.996094 C 138.777344 211.90625 138.742188 210.800781 138.742188 209.710938 C 138.742188 208.621094 138.777344 207.515625 138.863281 206.425781 Z M 130.128906 214.65625 C 130.386719 217.457031 132.195312 219.859375 134.832031 220.914062 L 141.324219 223.523438 C 142.257812 226.636719 143.511719 229.644531 145.046875 232.515625 L 142.289062 238.984375 C 141.171875 241.609375 141.585938 244.601562 143.394531 246.761719 C 144.445312 248.023438 145.546875 249.234375 146.71875 250.394531 C 147.871094 251.570312 149.078125 252.675781 150.351562 253.75 C 152.488281 255.546875 155.449219 255.980469 158.085938 254.835938 L 164.527344 252.070312 C 167.390625 253.609375 170.386719 254.871094 173.488281 255.804688 L 176.085938 262.324219 C 177.136719 264.96875 179.53125 266.785156 182.324219 267.042969 C 183.941406 267.183594 185.597656 267.25 187.25 267.25 C 188.902344 267.25 190.558594 267.183594 192.175781 267.042969 C 194.96875 266.785156 197.363281 264.96875 198.414062 262.324219 L 201.015625 255.804688 C 204.113281 254.871094 207.113281 253.609375 209.972656 252.070312 L 216.414062 254.835938 C 219.03125 255.980469 221.996094 255.546875 224.164062 253.730469 C 225.421875 252.675781 226.628906 251.570312 227.78125 250.394531 C 228.953125 249.234375 230.058594 248.023438 231.125 246.746094 C 232.917969 244.601562 233.328125 241.609375 232.210938 238.984375 L 229.453125 232.515625 C 230.988281 229.644531 232.246094 226.636719 233.175781 223.523438 L 239.667969 220.914062 C 242.304688 219.859375 244.113281 217.457031 244.371094 214.65625 C 244.507812 213.03125 244.578125 211.371094 244.578125 209.710938 C 244.578125 208.050781 244.507812 206.390625 244.371094 204.765625 C 244.113281 201.964844 242.304688 199.5625 239.667969 198.507812 L 233.175781 195.894531 C 232.246094 192.785156 230.988281 189.773438 229.453125 186.90625 L 232.210938 180.4375 C 233.347656 177.792969 232.917969 174.820312 231.109375 172.675781 C 230.074219 171.414062 228.953125 170.203125 227.78125 169.027344 C 226.628906 167.851562 225.421875 166.746094 224.148438 165.671875 C 221.996094 163.875 219.03125 163.441406 216.414062 164.582031 L 209.972656 167.351562 C 207.113281 165.8125 204.113281 164.550781 201.015625 163.617188 L 198.414062 157.097656 C 197.363281 154.453125 194.96875 152.636719 192.175781 152.378906 C 188.921875 152.082031 185.5625 152.082031 182.324219 152.378906 C 179.53125 152.636719 177.136719 154.453125 176.085938 157.097656 L 173.488281 163.617188 C 170.386719 164.550781 167.390625 165.8125 164.527344 167.351562 L 158.105469 164.582031 C 155.46875 163.441406 152.503906 163.875 150.335938 165.691406 C 149.078125 166.746094 147.871094 167.851562 146.71875 169.027344 C 145.546875 170.1875 144.445312 171.394531 143.375 172.675781 C 141.585938 174.820312 141.171875 177.8125 142.289062 180.4375 L 145.046875 186.90625 C 143.511719 189.773438 142.257812 192.785156 141.324219 195.894531 L 134.832031 198.507812 C 132.195312 199.5625 130.386719 201.964844 130.128906 204.765625 C 129.992188 206.390625 129.921875 208.050781 129.921875 209.710938 C 129.921875 211.371094 129.992188 213.03125 130.128906 214.65625 "/>
<g clip-path="url(#clip1)" clip-rule="nonzero">
<path style=" stroke:none;fill-rule:nonzero;fill:rgb(16.859436%,17.248535%,17.649841%);fill-opacity:1;" d="M 257.808594 72.496094 L 257.808594 90.203125 L 116.691406 90.203125 L 116.691406 72.496094 C 116.691406 67.621094 120.65625 63.644531 125.511719 63.644531 L 248.988281 63.644531 C 253.847656 63.644531 257.808594 67.621094 257.808594 72.496094 Z M 248.988281 311.515625 L 125.511719 311.515625 C 120.65625 311.515625 116.691406 307.539062 116.691406 302.660156 L 116.691406 284.957031 L 257.808594 284.957031 L 257.808594 302.660156 C 257.808594 307.539062 253.847656 311.515625 248.988281 311.515625 Z M 257.808594 276.105469 L 116.691406 276.105469 L 116.691406 99.054688 L 257.808594 99.054688 Z M 125.511719 54.792969 C 115.78125 54.792969 107.875 62.726562 107.875 72.496094 L 107.875 302.660156 C 107.875 312.429688 115.78125 320.367188 125.511719 320.367188 L 248.988281 320.367188 C 258.71875 320.367188 266.628906 312.429688 266.628906 302.660156 L 266.628906 72.496094 C 266.628906 62.726562 258.71875 54.792969 248.988281 54.792969 L 125.511719 54.792969 "/>
</g>
<path style=" stroke:none;fill-rule:nonzero;fill:rgb(16.859436%,17.248535%,17.649841%);fill-opacity:1;" d="M 162.082031 142.019531 C 162.945312 142.886719 164.0625 143.316406 165.199219 143.316406 C 166.339844 143.316406 167.457031 142.886719 168.320312 142.019531 C 170.042969 140.292969 170.042969 137.492188 168.320312 135.761719 L 158.207031 125.613281 L 168.320312 115.464844 C 170.042969 113.734375 170.042969 110.933594 168.320312 109.203125 C 166.597656 107.476562 163.804688 107.476562 162.082031 109.203125 L 148.855469 122.484375 C 147.132812 124.210938 147.132812 127.011719 148.855469 128.742188 L 162.082031 142.019531 "/>
<path style=" stroke:none;fill-rule:nonzero;fill:rgb(16.859436%,17.248535%,17.649841%);fill-opacity:1;" d="M 206.179688 142.019531 C 207.042969 142.886719 208.164062 143.316406 209.300781 143.316406 C 210.4375 143.316406 211.554688 142.886719 212.417969 142.019531 L 225.648438 128.742188 C 227.371094 127.011719 227.371094 124.210938 225.648438 122.484375 L 212.417969 109.203125 C 210.695312 107.476562 207.902344 107.476562 206.179688 109.203125 C 204.457031 110.933594 204.457031 113.734375 206.179688 115.464844 L 216.292969 125.613281 L 206.179688 135.761719 C 204.457031 137.492188 204.457031 140.292969 206.179688 142.019531 "/>
<path style=" stroke:none;fill-rule:nonzero;fill:rgb(16.859436%,17.248535%,17.649841%);fill-opacity:1;" d="M 181.445312 143.09375 C 181.910156 143.246094 182.375 143.316406 182.839844 143.316406 C 184.683594 143.316406 186.40625 142.140625 187.027344 140.292969 L 195.847656 113.734375 C 196.605469 111.417969 195.363281 108.910156 193.054688 108.132812 C 190.710938 107.371094 188.25 108.617188 187.472656 110.933594 L 178.65625 137.492188 C 177.898438 139.808594 179.136719 142.3125 181.445312 143.09375 "/>
<path style=" stroke:none;fill-rule:nonzero;fill:rgb(16.859436%,17.248535%,17.649841%);fill-opacity:1;" d="M 187.25 240.695312 C 204.269531 240.695312 218.117188 226.792969 218.117188 209.710938 C 218.117188 192.628906 204.269531 178.726562 187.25 178.726562 C 184.820312 178.726562 182.839844 180.714844 182.839844 183.152344 C 182.839844 185.589844 184.820312 187.578125 187.25 187.578125 C 199.410156 187.578125 209.300781 197.503906 209.300781 209.710938 C 209.300781 221.917969 199.410156 231.84375 187.25 231.84375 C 175.089844 231.84375 165.199219 221.917969 165.199219 209.710938 C 165.199219 203.433594 167.871094 197.417969 172.554688 193.214844 C 174.363281 191.589844 174.519531 188.789062 172.902344 186.957031 C 171.28125 185.140625 168.472656 184.984375 166.664062 186.609375 C 160.136719 192.488281 156.382812 200.910156 156.382812 209.710938 C 156.382812 226.792969 170.230469 240.695312 187.25 240.695312 "/>
<path style=" stroke:none;fill-rule:nonzero;fill:rgb(16.859436%,17.248535%,17.649841%);fill-opacity:1;" d="M 174.019531 72.496094 L 169.609375 72.496094 C 167.183594 72.496094 165.199219 74.484375 165.199219 76.921875 C 165.199219 79.363281 167.183594 81.351562 169.609375 81.351562 L 174.019531 81.351562 C 176.449219 81.351562 178.429688 79.363281 178.429688 76.921875 C 178.429688 74.484375 176.449219 72.496094 174.019531 72.496094 "/>
<path style=" stroke:none;fill-rule:nonzero;fill:rgb(16.859436%,17.248535%,17.649841%);fill-opacity:1;" d="M 204.890625 72.496094 L 191.660156 72.496094 C 189.230469 72.496094 187.25 74.484375 187.25 76.921875 C 187.25 79.363281 189.230469 81.351562 191.660156 81.351562 L 204.890625 81.351562 C 207.320312 81.351562 209.300781 79.363281 209.300781 76.921875 C 209.300781 74.484375 207.320312 72.496094 204.890625 72.496094 "/>
<path style=" stroke:none;fill-rule:nonzero;fill:rgb(16.859436%,17.248535%,17.649841%);fill-opacity:1;" d="M 196.070312 293.808594 L 178.429688 293.808594 C 176 293.808594 174.019531 295.796875 174.019531 298.234375 C 174.019531 300.671875 176 302.660156 178.429688 302.660156 L 196.070312 302.660156 C 198.5 302.660156 200.480469 300.671875 200.480469 298.234375 C 200.480469 295.796875 198.5 293.808594 196.070312 293.808594 "/>
</g>
</svg>
